<svg xmlns="http://www.w3.org/2000/svg" viewBox="0 0 48 48" fill="none">
  <rect x="4" y="4" width="40" height="40" rx="10" fill="#CC0000" fill-opacity="0.08"/>
  <path d="M10 20c0-7.7 6.3-14 14-14s14 6.3 14 14" stroke="#CC0000" stroke-width="2.4" stroke-linecap="round"/>
  <path d="M10 22c0 5 4 9 9 9h10c5 0 9-4 9-9" stroke="#CC0000" stroke-width="2" stroke-linecap="round"/>
  <line x1="24" y1="31" x2="24" y2="37" stroke="#CC0000" stroke-width="2" stroke-linecap="round"/>
  <line x1="19" y1="39" x2="29" y2="39" stroke="#CC0000" stroke-width="2" stroke-linecap="round"/>
  <path d="M17 18v2.5c0 1.4 1.1 2.5 2.5 2.5s2.5-1.1 2.5-2.5V18" stroke="#CC0000" stroke-width="1.8" stroke-linecap="round" stroke-linejoin="round"/>
  <path d="M26 18v2.5c0 1.4 1.1 2.5 2.5 2.5s2.5-1.1 2.5-2.5V18" stroke="#CC0000" stroke-width="1.8" stroke-linecap="round" stroke-linejoin="round"/>
  <path d="M21.5 27c0 1 .7 1.8 1.7 1.8s1.7-.8 1.7-1.8" stroke="#CC0000" stroke-width="1.8" stroke-linecap="round"/>
</svg>
